<svg xmlns="http://www.w3.org/2000/svg" viewBox="0 0 48 48" fill="none">
  <path d="M24 6c-2 4-6 7-8 12 2 1 4 2 6 2 1-3 2-6 2-9z" fill="#C9A227"/>
  <path d="M14 20c-3 2-5 6-6 10 3 0 6-1 8-3-1-2-1-5-2-7z" fill="#C9A227"/>
  <path d="M34 20c3 2 5 6 6 10-3 0-6-1-8-3 1-2 1-5 2-7z" fill="#C9A227"/>
  <ellipse cx="24" cy="14" rx="10" ry="6" fill="#C9A227" opacity=".35"/>
  <path d="M16 32c2 4 4 8 8 10 4-2 6-6 8-10-4 2-8 3-12 0-2 0-3 0-4 0z" fill="#C9A227"/>
  <path d="M18 28h12v14c0 2-2 4-6 4s-6-2-6-4V28z" fill="#C9A227" opacity=".85"/>
</svg>
